<?xml version="1.0" encoding="utf-8"?>
<!-- Generator: Adobe Illustrator 22.0.1, SVG Export Plug-In . SVG Version: 6.00 Build 0)  -->
<svg version="1.1" width="202px" height="150px" id="OBJECTS" xmlns="http://www.w3.org/2000/svg" xmlns:xlink="http://www.w3.org/1999/xlink" x="0px" y="0px"
	 viewBox="0 0 203.5 150" style="enable-background:new 0 0 203.5 150;" xml:space="preserve">
<style type="text/css">
	.st0{fill:#1180B1;}
	.st1{fill:#397FBD;}
	.st2{fill:#1C9928;}
	.st3{fill:#D31313;}
</style>
<g>
	<g>
		<g>
			<polygon class="st0" points="170.8,49.9 170.8,49.9 101.7,0 101.7,0 101.7,0 101.7,0 93.6,5.8 93.6,5.8 93.6,5.8 93.6,5.8 
				27.6,53.5 40.1,53.5 93.6,14.9 93.6,14.9 93.6,14.9 101.7,9.1 101.7,9.1 109.7,14.8 109.7,14.8 109.7,14.8 163.3,53.5 
				175.9,53.5 			"/>
			<g>
				<polygon class="st0" points="112.5,27 112.5,36 136.8,53.5 149.3,53.5 				"/>
				<polygon class="st0" points="54.3,53.5 66.9,53.5 90.9,36.1 90.9,27.1 				"/>
				<polygon class="st0" points="105.2,21.7 105.2,21.7 105.2,30.7 105.2,42.1 98.3,42.1 98.3,30.8 98.3,21.8 90.9,27.1 90.9,27.1 
					90.9,36.1 90.9,36.1 90.9,53.5 90.9,100.3 98.3,107.6 98.3,53.5 98.3,49.3 105.2,49.3 105.2,53.5 105.2,107.6 112.5,100.3 
					112.5,53.5 112.5,36 112.5,27 				"/>
			</g>
			<path class="st1" d="M156.2,68.9"/>
			<polygon class="st2" points="80.7,50.2 73.2,55.7 66.2,60.7 76.7,60.7 76.7,62.2 76.7,62.2 76.7,87.2 83.9,95.3 83.9,57 
				83.9,47.9 			"/>
			<polygon class="st3" points="126.7,82.7 126.7,67.6 126.7,67.6 126.7,53.5 119.7,47.6 119.7,86.2 119.7,95.2 119.7,95.3 
				119.8,95.1 129.9,87.8 137,82.7 137,82.7 			"/>
		</g>
	</g>
	<g>
		<path d="M8.6,127.9H0v-4.1h22v4.1h-8.6v21.8H8.6V127.9z" />
		<path d="M36.1,129.8v4.4c-0.4-0.1-0.8-0.1-1.1-0.1c-1.8,0-3.2,0.5-4.2,1.6c-1,1-1.5,2.6-1.5,4.5v9.6h-4.6V130h4.4v2.9
			C30.4,130.8,32.7,129.8,36.1,129.8z"
			/>
		<path d="M54.1,131.9c1.5,1.4,2.3,3.5,2.3,6.3v11.6h-4.4v-2.4c-0.6,0.9-1.4,1.5-2.4,2c-1,0.5-2.3,0.7-3.8,0.7s-2.8-0.3-3.9-0.8
			c-1.1-0.5-2-1.2-2.6-2.1c-0.6-0.9-0.9-1.9-0.9-3.1c0-1.8,0.7-3.2,2-4.3c1.3-1.1,3.4-1.6,6.2-1.6h5.1v-0.3c0-1.4-0.4-2.4-1.2-3.2
			c-0.8-0.7-2.1-1.1-3.7-1.1c-1.1,0-2.2,0.2-3.3,0.5c-1.1,0.3-2,0.8-2.7,1.4l-1.8-3.4c1-0.8,2.3-1.4,3.7-1.8c1.5-0.4,3-0.6,4.6-0.6
			C50.3,129.8,52.6,130.5,54.1,131.9z M49.9,145.8c0.9-0.5,1.5-1.3,1.9-2.3v-2.3H47c-2.7,0-4,0.9-4,2.6c0,0.8,0.3,1.5,1,2
			c0.7,0.5,1.6,0.7,2.8,0.7C48,146.6,49,146.4,49.9,145.8z"
			/>
		<path d="M81.9,122.3v27.4h-4.4v-2.6c-0.8,0.9-1.7,1.6-2.8,2.1c-1.1,0.5-2.4,0.7-3.7,0.7c-1.9,0-3.6-0.4-5.1-1.3
			c-1.5-0.8-2.7-2-3.6-3.6c-0.9-1.5-1.3-3.3-1.3-5.3c0-2,0.4-3.8,1.3-5.3c0.9-1.5,2.1-2.7,3.6-3.5c1.5-0.8,3.2-1.3,5.1-1.3
			c1.3,0,2.5,0.2,3.6,0.7c1.1,0.4,2,1.1,2.8,2v-10.1H81.9z M74.4,145.3c0.9-0.5,1.6-1.2,2.1-2.2c0.5-0.9,0.8-2,0.8-3.3
			c0-1.2-0.3-2.3-0.8-3.3c-0.5-0.9-1.2-1.7-2.1-2.2c-0.9-0.5-1.9-0.8-3-0.8s-2.1,0.3-3,0.8c-0.9,0.5-1.6,1.2-2.1,2.2
			c-0.5,0.9-0.8,2-0.8,3.3c0,1.2,0.3,2.3,0.8,3.3c0.5,0.9,1.2,1.7,2.1,2.2c0.9,0.5,1.9,0.8,3,0.8S73.5,145.8,74.4,145.3z"
			/>
		<path d="M106.4,141.3H90.9c0.3,1.5,1,2.6,2.1,3.5c1.1,0.9,2.6,1.3,4.3,1.3c2.2,0,4-0.7,5.4-2.1l2.5,2.8c-0.9,1.1-2,1.9-3.4,2.4
			c-1.4,0.5-2.9,0.8-4.6,0.8c-2.2,0-4.1-0.4-5.7-1.3c-1.7-0.9-2.9-2.1-3.8-3.6c-0.9-1.5-1.3-3.3-1.3-5.2c0-1.9,0.4-3.7,1.3-5.2
			c0.9-1.5,2.1-2.7,3.6-3.6c1.6-0.9,3.3-1.3,5.3-1.3c1.9,0,3.6,0.4,5.2,1.3c1.5,0.9,2.7,2,3.5,3.6c0.9,1.5,1.3,3.3,1.3,5.3
			C106.5,140.3,106.5,140.8,106.4,141.3z M92.7,134.8c-1,0.9-1.6,2-1.9,3.5h11.2c-0.2-1.4-0.8-2.6-1.8-3.5c-1-0.9-2.3-1.3-3.8-1.3
			C95,133.5,93.8,133.9,92.7,134.8z"
			/>
		<path d="M128.1,132c1.5,1.5,2.3,3.6,2.3,6.5v11.3h-4.6V139c0-1.7-0.4-3-1.2-3.9c-0.8-0.9-2-1.3-3.5-1.3c-1.7,0-3,0.5-4,1.5
			c-1,1-1.5,2.5-1.5,4.4v10h-4.6v-27.4h4.6v10c0.8-0.8,1.7-1.4,2.8-1.9c1.1-0.4,2.4-0.6,3.8-0.6C124.6,129.8,126.6,130.5,128.1,132z
			"
			/>
		<path d="M139.9,148.7c-1.6-0.9-2.9-2.1-3.8-3.6c-0.9-1.5-1.3-3.3-1.3-5.2c0-1.9,0.4-3.7,1.3-5.2c0.9-1.5,2.2-2.7,3.8-3.6
			c1.6-0.9,3.4-1.3,5.4-1.3c2,0,3.8,0.4,5.4,1.3c1.6,0.9,2.9,2.1,3.8,3.6c0.9,1.5,1.3,3.3,1.3,5.2c0,1.9-0.5,3.7-1.3,5.2
			c-0.9,1.5-2.2,2.7-3.8,3.6c-1.6,0.9-3.4,1.3-5.4,1.3C143.3,150,141.5,149.6,139.9,148.7z M149.5,144.3c1.1-1.1,1.7-2.6,1.7-4.5
			c0-1.8-0.6-3.3-1.7-4.5c-1.1-1.1-2.5-1.7-4.2-1.7c-1.7,0-3.1,0.6-4.2,1.7c-1.1,1.1-1.6,2.6-1.6,4.5c0,1.8,0.5,3.3,1.6,4.5
			c1.1,1.1,2.5,1.7,4.2,1.7C147,146,148.4,145.5,149.5,144.3z"
			/>
		<path d="M163.8,148.7c-1.6-0.9-2.9-2.1-3.8-3.6c-0.9-1.5-1.3-3.3-1.3-5.2c0-1.9,0.4-3.7,1.3-5.2c0.9-1.5,2.2-2.7,3.8-3.6
			c1.6-0.9,3.4-1.3,5.4-1.3c2,0,3.8,0.4,5.4,1.3c1.6,0.9,2.9,2.1,3.8,3.6c0.9,1.5,1.3,3.3,1.3,5.2c0,1.9-0.5,3.7-1.3,5.2
			c-0.9,1.5-2.2,2.7-3.8,3.6c-1.6,0.9-3.4,1.3-5.4,1.3C167.2,150,165.4,149.6,163.8,148.7z M173.4,144.3c1.1-1.1,1.7-2.6,1.7-4.5
			c0-1.8-0.6-3.3-1.7-4.5c-1.1-1.1-2.5-1.7-4.2-1.7c-1.7,0-3.1,0.6-4.2,1.7c-1.1,1.1-1.6,2.6-1.6,4.5c0,1.8,0.5,3.3,1.6,4.5
			c1.1,1.1,2.5,1.7,4.2,1.7C170.9,146,172.3,145.5,173.4,144.3z"
			/>
		<path d="M203.5,122.3v27.4H199v-2.6c-0.8,0.9-1.7,1.6-2.8,2.1c-1.1,0.5-2.4,0.7-3.7,0.7c-1.9,0-3.6-0.4-5.1-1.3
			c-1.5-0.8-2.7-2-3.6-3.6c-0.9-1.5-1.3-3.3-1.3-5.3c0-2,0.4-3.8,1.3-5.3c0.9-1.5,2.1-2.7,3.6-3.5c1.5-0.8,3.2-1.3,5.1-1.3
			c1.3,0,2.5,0.2,3.6,0.7c1.1,0.4,2,1.1,2.8,2v-10.1H203.5z M196,145.3c0.9-0.5,1.6-1.2,2.1-2.2c0.5-0.9,0.8-2,0.8-3.3
			c0-1.2-0.3-2.3-0.8-3.3c-0.5-0.9-1.2-1.7-2.1-2.2c-0.9-0.5-1.9-0.8-3-0.8s-2.1,0.3-3,0.8c-0.9,0.5-1.6,1.2-2.1,2.2
			c-0.5,0.9-0.8,2-0.8,3.3c0,1.2,0.3,2.3,0.8,3.3c0.5,0.9,1.2,1.7,2.1,2.2c0.9,0.5,1.9,0.8,3,0.8S195.1,145.8,196,145.3z"
			
			/>
	</g>
</g>
</svg>
