<?xml version="1.0" encoding="utf-8"?>
<!-- Generator: Adobe Illustrator 22.0.1, SVG Export Plug-In . SVG Version: 6.00 Build 0)  -->
<svg version="1.1" width="150px" height="150px" id="OBJECTS" xmlns="http://www.w3.org/2000/svg" xmlns:xlink="http://www.w3.org/1999/xlink" x="0px" y="0px"
	 viewBox="0 0 203.5 150" style="enable-background:new 0 0 203.5 150;" xml:space="preserve">
<style type="text/css">
	.st0{fill:#1180B1;}
	.st1{fill:#397FBD;}
	.st2{fill:#1C9928;}
	.st3{fill:#D31313;}
</style>
<g>
	<g>
		<g>
			<polygon class="st0" points="170.8,49.9 170.8,49.9 101.7,0 101.7,0 101.7,0 101.7,0 93.6,5.8 93.6,5.8 93.6,5.8 93.6,5.8 
				27.6,53.5 40.1,53.5 93.6,14.9 93.6,14.9 93.6,14.9 101.7,9.1 101.7,9.1 109.7,14.8 109.7,14.8 109.7,14.8 163.3,53.5 
				175.9,53.5 			"/>
			<g>
				<polygon class="st0" points="112.5,27 112.5,36 136.8,53.5 149.3,53.5 				"/>
				<polygon class="st0" points="54.3,53.5 66.9,53.5 90.9,36.1 90.9,27.1 				"/>
				<polygon class="st0" points="105.2,21.7 105.2,21.7 105.2,30.7 105.2,42.1 98.3,42.1 98.3,30.8 98.3,21.8 90.9,27.1 90.9,27.1 
					90.9,36.1 90.9,36.1 90.9,53.5 90.9,100.3 98.3,107.6 98.3,53.5 98.3,49.3 105.2,49.3 105.2,53.5 105.2,107.6 112.5,100.3 
					112.5,53.5 112.5,36 112.5,27 				"/>
			</g>
			<path class="st1" d="M156.2,68.9"/>
			<polygon class="st2" points="80.7,50.2 73.2,55.7 66.2,60.7 76.7,60.7 76.7,62.2 76.7,62.2 76.7,87.2 83.9,95.3 83.9,57 
				83.9,47.9 			"/>
			<polygon class="st3" points="126.7,82.7 126.7,67.6 126.7,67.6 126.7,53.5 119.7,47.6 119.7,86.2 119.7,95.2 119.7,95.3 
				119.8,95.1 129.9,87.8 137,82.7 137,82.7 			"/>
		</g>
	</g>
</g>
</svg>
